<svg width="100%" viewBox="0 0 890 290" role="img" style="" xmlns="http://www.w3.org/2000/svg" xmlns:c2pa="http://c2pa.org/manifest"><metadata><c2pa:manifest>AAAWkGp1bWIAAAAeanVtZGMycGEAEQAQgAAAqgA4m3EDYzJwYQAAABZqanVtYgAAAEdqdW1kYzJtYQARABCAAACqADibcQN1cm46YzJwYTpiMTE0NDQxYS1jOTQxLTQwMTctYTJmOC01NWZjZGVkZDM1MDQAAAADf2p1bWIAAAApanVtZGMyYXMAEQAQgAAAqgA4m3EDYzJwYS5hc3NlcnRpb25zAAAAALxqdW1iAAAARGp1bWRjYm9yABEAEIAAAKoAOJtxE2MycGEuaW5ncmVkaWVudC52MwAAAAAYYzJzaEuULFHGtUJ2jYOWItklNbwAAABwY2JvcqNscmVsYXRpb25zaGlwaHBhcmVudE9maWRjOmZvcm1hdG1pbWFnZS9zdmcreG1samluc3RhbmNlSUR4LHhtcDppaWQ6MjQ3N2M2OGUtMWYxMi00YzBkLTk5ZDEtMWNkMDMyZWQ5NjYxAAABzmp1bWIAAABBanVtZGNib3IAEQAQgAAAqgA4m3ETYzJwYS5hY3Rpb25zLnYyAAAAABhjMnNoxKHIucTwJUNnfq/wlCz1ywAAAYVjYm9yoWdhY3Rpb25zgqJmYWN0aW9ua2MycGEub3BlbmVkanBhcmFtZXRlcnOha2luZ3JlZGllbnRzgaJjdXJseC1zZWxmI2p1bWJmPWMycGEuYXNzZXJ0aW9ucy9jMnBhLmluZ3JlZGllbnQudjNkaGFzaFggvR1H3LV9iUjT1/NR4YkrLI8VOMRlIYjwlsECdb2ZEXWkZmFjdGlvbngdY29tLmFudGhyb3BpYy5jbGF1ZGUucHJvdmlkZWRtc29mdHdhcmVBZ2VudKFkbmFtZWZDbGF1ZGVqcGFyYW1ldGVyc6F4H2NvbS5hbnRocm9waWMub3JpZ2luLWNvbmZpZGVuY2VndW5rbm93bmtkZXNjcmlwdGlvbnhmQ2xhdWRlIHByb3ZpZGVkIHRoaXMgZmlsZSBhdCB0aGUgcmVxdWVzdCBvZiBhIHVzZXIgYW5kIG1heSBoYXZlIGNyZWF0ZWQgb3IgbW9kaWZpZWQgdGhlIGZpbGUgY29udGVudHMuAAAAxGp1bWIAAABAanVtZGNib3IAEQAQgAAAqgA4m3ETYzJwYS5oYXNoLmRhdGEAAAAAGGMyc2juhZBWQwKLqtnLv2dtc9ACAAAAfGNib3KlamV4Y2x1c2lvbnOBomVzdGFydBieZmxlbmd0aBkeGGRuYW1lbmp1bWJmIG1hbmlmZXN0Y2FsZ2ZzaGEyNTZkaGFzaFgg1Eme95pP4f+rLxUVQipnss871//pOdxZOixiQnxrEYljcGFkSQAAAAAAAAAAAAAAAmRqdW1iAAAAJ2p1bWRjMmNsABEAEIAAAKoAOJtxA2MycGEuY2xhaW0udjIAAAACNWNib3Kmamluc3RhbmNlSUR4LHhtcDppaWQ6ZTQ4YjljZWMtMWU2Ny00OTNiLWJlNGItNGE0YzI3NTI2ZjA0dGNsYWltX2dlbmVyYXRvcl9pbmZvo2RuYW1lc0FudGhyb3BpYyBDbGF1ZGUuYWlndmVyc2lvbmUxLjAuMHdvcmcuY29udGVudGF1dGguYzJwYV9yc2YwLjkwLjBpc2lnbmF0dXJleE1zZWxmI2p1bWJmPS9jMnBhL3VybjpjMnBhOmIxMTQ0NDFhLWM5NDEtNDAxNy1hMmY4LTU1ZmNkZWRkMzUwNC9jMnBhLnNpZ25hdHVyZXJjcmVhdGVkX2Fzc2VydGlvbnOComN1cmx4KnNlbGYjanVtYmY9YzJwYS5hc3NlcnRpb25zL2MycGEuYWN0aW9ucy52MmRoYXNoWCBRkPvSfvm1J5N9k+09a3K9xFA67z/4HPJQqvJikudECqJjdXJseClzZWxmI2p1bWJmPWMycGEuYXNzZXJ0aW9ucy9jMnBhLmhhc2guZGF0YWRoYXNoWCAncxuvscJAPLl5hTto8oRgwcV5yRB9NrW66/v6kIGtJ3NnYXRoZXJlZF9hc3NlcnRpb25zgaJjdXJseC1zZWxmI2p1bWJmPWMycGEuYXNzZXJ0aW9ucy9jMnBhLmluZ3JlZGllbnQudjNkaGFzaFggvR1H3LV9iUjT1/NR4YkrLI8VOMRlIYjwlsECdb2ZEXVjYWxnZnNoYTI1NgAAEDhqdW1iAAAAKGp1bWRjMmNzABEAEIAAAKoAOJtxA2MycGEuc2lnbmF0dXJlAAAAEAhjYm9y0oRZAhKiASYYIVkCCjCCAgYwggGNoAMCAQICFEDloAruwjnQvriD+gZCBT1nVRMAMAoGCCqGSM49BAMDMEkxFzAVBgNVBAoTDkFudGhyb3BpYywgUEJDMS4wLAYDVQQDEyVBbnRocm9waWMgQ29udGVudCBDcmVkZW50aWFscyBSb290IENBMB4XDTI2MDgwNzE4NDM1NloXDTI4MDgwNjE5NDM1NlowRDEXMBUGA1UEChMOQW50aHJvcGljLCBQQkMxKTAnBgNVBAMTIEFudGhyb3BpYyBDbGF1ZGUgQ29udGVudCBTaWduaW5nMFkwEwYHKoZIzj0CAQYIKoZIzj0DAQcDQgAEmHoKa8tQGAUU1TS9QqU5W0Tp2N3XsvlK7BfQt6YWKwEzd2R3/dzKPEUDdCjlLjp9fT+KFjRVnuZ9v0oXvTe3k6NYMFYwDgYDVR0PAQH/BAQDAgeAMBUGA1UdJQQOMAwGCisGAQQBg+heAgEwDAYDVR0TAQH/BAIwADAfBgNVHSMEGDAWgBTOUeIEgU5kWyP448TPmj6cwddcwjAKBggqhkjOPQQDAwNnADBkAjAxcx0UngF60stVjs5G4T2eiptsBk5mf9oCtfJPAUBl8qs/PEXa8+gk1/X5QJ2DVcYCMHBfXN31YapiSqYvlIWrDVDJKOvXMl+kkz37Wt0PBI8sw486Mq6JeOhT+lRR4b1HCaFjcGFkWQ2eAAAAAAAAAAAAAAAAAAAAAAAAAAAAAAAAAAAAAAAAAAAAAAAAAAAAAAAAAAAAAAAAAAAAAAAAAAAAAAAAAAAAAAAAAAAAAAAAAAAAAAAAAAAAAAAAAAAAAAAAAAAAAAAAAAAAAAAAAAAAAAAAAAAAAAAAAAAAAAAAAAAAAAAAAAAAAAAAAAAAAAAAAAAAAAAAAAAAAAAAAAAAAAAAAAAAAAAAAAAAAAAAAAAAAAAAAAAAAAAAAAAAAAAAAAAAAAAAAAAAAAAAAAAAAAAAAAAAAAAAAAAAAAAAAAAAAAAAAAAAAAAAAAAAAAAAAAAAAAAAAAAAAAAAAAAAAAAAAAAAAAAAAAAAAAAAAAAAAAAAAAAAAAAAAAAAAAAAAAAAAAAAAAAAAAAAAAAAAAAAAAAAAAAAAAAAAAAAAAAAAAAAAAAAAAAAAAAAAAAAAAAAAAAAAAAAAAAAAAAAAAAAAAAAAAAAAAAAAAAAAAAAAAAAAAAAAAAAAAAAAAAAAAAAAAAAAAAAAAAAAAAAAAAAAAAAAAAAAAAAAAAAAAAAAAAAAAAAAAAAAAAAAAAAAAAAAAAAAAAAAAAAAAAAAAAAAAAAAAAAAAAAAAAAAAAAAAAAAAAAAAAAAAAAAAAAAAAAAAAAAAAAAAAAAAAAAAAAAAAAAAAAAAAAAAAAAAAAAAAAAAAAAAAAAAAAAAAAAAAAAAAAAAAAAAAAAAAAAAAAAAAAAAAAAAAAAAAAAAAAAAAAAAAAAAAAAAAAAAAAAAAAAAAAAAAAAAAAAAAAAAAAAAAAAAAAAAAAAAAAAAAAAAAAAAAAAAAAAAAAAAAAAAAAAAAAAAAAAAAAAAAAAAAAAAAAAAAAAAAAAAAAAAAAAAAAAAAAAAAAAAAAAAAAAAAAAAAAAAAAAAAAAAAAAAAAAAAAAAAAAAAAAAAAAAAAAAAAAAAAAAAAAAAAAAAAAAAAAAAAAAAAAAAAAAAAAAAAAAAAAAAAAAAAAAAAAAAAAAAAAAAAAAAAAAAAAAAAAAAAAAAAAAAAAAAAAAAAAAAAAAAAAAAAAAAAAAAAAAAAAAAAAAAAAAAAAAAAAAAAAAAAAAAAAAAAAAAAAAAAAAAAAAAAAAAAAAAAAAAAAAAAAAAAAAAAAAAAAAAAAAAAAAAAAAAAAAAAAAAAAAAAAAAAAAAAAAAAAAAAAAAAAAAAAAAAAAAAAAAAAAAAAAAAAAAAAAAAAAAAAAAAAAAAAAAAAAAAAAAAAAAAAAAAAAAAAAAAAAAAAAAAAAAAAAAAAAAAAAAAAAAAAAAAAAAAAAAAAAAAAAAAAAAAAAAAAAAAAAAAAAAAAAAAAAAAAAAAAAAAAAAAAAAAAAAAAAAAAAAAAAAAAAAAAAAAAAAAAAAAAAAAAAAAAAAAAAAAAAAAAAAAAAAAAAAAAAAAAAAAAAAAAAAAAAAAAAAAAAAAAAAAAAAAAAAAAAAAAAAAAAAAAAAAAAAAAAAAAAAAAAAAAAAAAAAAAAAAAAAAAAAAAAAAAAAAAAAAAAAAAAAAAAAAAAAAAAAAAAAAAAAAAAAAAAAAAAAAAAAAAAAAAAAAAAAAAAAAAAAAAAAAAAAAAAAAAAAAAAAAAAAAAAAAAAAAAAAAAAAAAAAAAAAAAAAAAAAAAAAAAAAAAAAAAAAAAAAAAAAAAAAAAAAAAAAAAAAAAAAAAAAAAAAAAAAAAAAAAAAAAAAAAAAAAAAAAAAAAAAAAAAAAAAAAAAAAAAAAAAAAAAAAAAAAAAAAAAAAAAAAAAAAAAAAAAAAAAAAAAAAAAAAAAAAAAAAAAAAAAAAAAAAAAAAAAAAAAAAAAAAAAAAAAAAAAAAAAAAAAAAAAAAAAAAAAAAAAAAAAAAAAAAAAAAAAAAAAAAAAAAAAAAAAAAAAAAAAAAAAAAAAAAAAAAAAAAAAAAAAAAAAAAAAAAAAAAAAAAAAAAAAAAAAAAAAAAAAAAAAAAAAAAAAAAAAAAAAAAAAAAAAAAAAAAAAAAAAAAAAAAAAAAAAAAAAAAAAAAAAAAAAAAAAAAAAAAAAAAAAAAAAAAAAAAAAAAAAAAAAAAAAAAAAAAAAAAAAAAAAAAAAAAAAAAAAAAAAAAAAAAAAAAAAAAAAAAAAAAAAAAAAAAAAAAAAAAAAAAAAAAAAAAAAAAAAAAAAAAAAAAAAAAAAAAAAAAAAAAAAAAAAAAAAAAAAAAAAAAAAAAAAAAAAAAAAAAAAAAAAAAAAAAAAAAAAAAAAAAAAAAAAAAAAAAAAAAAAAAAAAAAAAAAAAAAAAAAAAAAAAAAAAAAAAAAAAAAAAAAAAAAAAAAAAAAAAAAAAAAAAAAAAAAAAAAAAAAAAAAAAAAAAAAAAAAAAAAAAAAAAAAAAAAAAAAAAAAAAAAAAAAAAAAAAAAAAAAAAAAAAAAAAAAAAAAAAAAAAAAAAAAAAAAAAAAAAAAAAAAAAAAAAAAAAAAAAAAAAAAAAAAAAAAAAAAAAAAAAAAAAAAAAAAAAAAAAAAAAAAAAAAAAAAAAAAAAAAAAAAAAAAAAAAAAAAAAAAAAAAAAAAAAAAAAAAAAAAAAAAAAAAAAAAAAAAAAAAAAAAAAAAAAAAAAAAAAAAAAAAAAAAAAAAAAAAAAAAAAAAAAAAAAAAAAAAAAAAAAAAAAAAAAAAAAAAAAAAAAAAAAAAAAAAAAAAAAAAAAAAAAAAAAAAAAAAAAAAAAAAAAAAAAAAAAAAAAAAAAAAAAAAAAAAAAAAAAAAAAAAAAAAAAAAAAAAAAAAAAAAAAAAAAAAAAAAAAAAAAAAAAAAAAAAAAAAAAAAAAAAAAAAAAAAAAAAAAAAAAAAAAAAAAAAAAAAAAAAAAAAAAAAAAAAAAAAAAAAAAAAAAAAAAAAAAAAAAAAAAAAAAAAAAAAAAAAAAAAAAAAAAAAAAAAAAAAAAAAAAAAAAAAAAAAAAAAAAAAAAAAAAAAAAAAAAAAAAAAAAAAAAAAAAAAAAAAAAAAAAAAAAAAAAAAAAAAAAAAAAAAAAAAAAAAAAAAAAAAAAAAAAAAAAAAAAAAAAAAAAAAAAAAAAAAAAAAAAAAAAAAAAAAAAAAAAAAAAAAAAAAAAAAAAAAAAAAAAAAAAAAAAAAAAAAAAAAAAAAAAAAAAAAAAAAAAAAAAAAAAAAAAAAAAAAAAAAAAAAAAAAAAAAAAAAAAAAAAAAAAAAAAAAAAAAAAAAAAAAAAAAAAAAAAAAAAAAAAAAAAAAAAAAAAAAAAAAAAAAAAAAAAAAAAAAAAAAAAAAAAAAAAAAAAAAAAAAAAAAAAAAAAAAAAAAAAAAAAAAAAAAAAAAAAAAAAAAAAAAAAAAAAAAAAAAAAAAAAAAAAAAAAAAAAAAAAAAAAAAAAAAAAAAAAAAAAAAAAAAAAAAAAAAAAAAAAAAAAAAAAAAAAAAAAAAAAAAAAAAAAAAAAAAAAAAAAAAAAAAAAAAAAAAAAAAAAAAAAAAAAAAAAAAAAAAAAAAAAAAAAAAAAAAAAAAAAAAAAAAAAAAAAAAAAAAAAAAAAAAAAAAAAAAAAAAAAAAAAAAAAAAAAAAAAAAAAAAAAAAAAAAAAAAAAAAAAAAAAAAAAAAAAAAAAAAAAAAAAAAAAAAAAAAAAAAAAAAAAAAAAAAAAAAAAAAAAAAAAAAAAAAAAAAAAAAAAAAAAAAAAAAAAAAAAAAAAAAAAAAAAAAAAAAAAAAAAAAAAAAAAAAAAAAAAAAAAAAAAAAAAAAAAAAAAAAAAAAAAAAAAAAAAAAAAAAAAAAAAAAAAAAAAAAAAAAAAAAAAAAAAAAAAAAAAAAAAAAAAAAAAAAAAAAAAAAAAAAAAAAAAAAAAAAAAAAAAAAAAAAAAAAAAAAAAAAAAAAAAAAAAAAAAAAAAAAAAAAAAAAAAAAAAAAAAAAAAAAAAAAAAAAAAAAAAAAAAAAAAAAAAAAAAAAAAAAAAAAAAAAAAAAAAAAAAAAAAAAAAAAAAAAAAAAAAAAAAAAAAAAAAAAAAAAAAAAAAAAAAAAAAAAAAAAAAAAAAAAAAAAAAAAAAAAAAAAAAAAAAAAAAAAAAAAAAAAAAAAAAAAAAAAAAAAAAAAAAAAAAAAAAAAAAAAAAAAAAAAAAAAAAAAAAAAAAAAAAAAAAAAAAAAAAAAAAAAAAAAAAAAAAAAAAAAAAAAAAAAAAAAAAAAAAAAAAAAAAAAAAAAAAAAAAAAAAAAAAAAAAAAAAAAAAAAAAAAAAAAAAAAAAAAAAAAAAAAAAAAAAAAAAAAAAAAAAAAAAAAAAAAAAAAAAAAAAAAAAAAAAAAAAAAAAAAAAAAAAAAAAAAAAAAAAAAAAAAAAAAAAAAAAAAAAAAAAAAAAAAAAAAAAAAAAAAAAAAAAAAAAAAAAAAAAAAAAAAAAAAAAAAAAAAAAAAAAAAAAAAAAAAAAAAAAAAAAAAAAAAAAAAAAAAAAAAAAAAAAAAAAAAAAAAAAAAAAAAAAAAAAAAAAAAAAAAAAAAAAAAAAAAAAAAAAAAAAAAAAAAAAAAAAAAAAAAAAAAAAAAAAAAAAAAAAAAAAAAAAAAAAAAAAAAAAAAAAAAAAAAAAAAAAAAAAAAAAAAAAAAAAAAAAAAAAAAAAAAAAAAAAAAAAAAAAAAAAAAAAAAAAAAAAAAAAAAAAAAAAAAAAAAAAAAAAAAAAAAAA9lhAFkn0HylPJOX4/a9sau1G5NbCDInc11/YQIn6uGmquPSrEJpQFd/mTqCP1k1ZzIMlZE2x0oRksDE1etWpPhbHiA==</c2pa:manifest></metadata>
<title style="fill:rgb(0, 0, 0);stroke:none;color:rgb(11, 11, 11);stroke-width:1px;stroke-linecap:butt;stroke-linejoin:miter;opacity:1;font-family:anthropic-sans, -apple-system, &quot;system-ui&quot;, &quot;Segoe UI&quot;, sans-serif;font-size:16px;font-weight:400;text-anchor:start;dominant-baseline:auto">Vercel-style minimal hero, centered, with blinking eyes and twitching ears</title>
<desc style="fill:rgb(0, 0, 0);stroke:none;color:rgb(11, 11, 11);stroke-width:1px;stroke-linecap:butt;stroke-linejoin:miter;opacity:1;font-family:anthropic-sans, -apple-system, &quot;system-ui&quot;, &quot;Segoe UI&quot;, sans-serif;font-size:16px;font-weight:400;text-anchor:start;dominant-baseline:auto">A pure black card with a subtle radial glow, a centered cat icon whose eyes blink and ears twitch periodically, bold white name centered beneath it, and the tagline Backend AI Engineer.</desc>
<defs>
  <radialGradient id="glow" cx="50%" cy="0%" r="75%">
    <stop offset="0%" stop-color="#3a3a3a" stop-opacity="0.5"/>
    <stop offset="100%" stop-color="#000000" stop-opacity="0"/>
  </radialGradient>
  <clipPath id="earL"><rect x="-2" y="-2" width="10" height="9"/></clipPath>
  <clipPath id="earR"><rect x="24" y="-2" width="10" height="9"/></clipPath>
  
</defs>

<rect x="0" y="0" width="880" height="280" fill="#000000" style="fill:rgb(0, 0, 0);stroke:none;color:rgb(11, 11, 11);stroke-width:1px;stroke-linecap:butt;stroke-linejoin:miter;opacity:1;font-family:anthropic-sans, -apple-system, &quot;system-ui&quot;, &quot;Segoe UI&quot;, sans-serif;font-size:16px;font-weight:400;text-anchor:start;dominant-baseline:auto"/>
<rect x="0" y="0" width="880" height="280" fill="url(#glow)" style="stroke:none;color:rgb(11, 11, 11);stroke-width:1px;stroke-linecap:butt;stroke-linejoin:miter;opacity:1;font-family:anthropic-sans, -apple-system, &quot;system-ui&quot;, &quot;Segoe UI&quot;, sans-serif;font-size:16px;font-weight:400;text-anchor:start;dominant-baseline:auto"/>

<g transform="translate(420.8,54) scale(1.2)" style="fill:rgb(0, 0, 0);stroke:none;color:rgb(11, 11, 11);stroke-width:1px;stroke-linecap:butt;stroke-linejoin:miter;opacity:1;font-family:anthropic-sans, -apple-system, &quot;system-ui&quot;, &quot;Segoe UI&quot;, sans-serif;font-size:16px;font-weight:400;text-anchor:start;dominant-baseline:auto">

  
  <path d="M29,32H3c-1.657,0-3-1.343-3-3V0h2l4,4h20l4-4h2v29C32,30.657,30.657,32,29,32z" style="fill: #F2C99E;;fill:rgb(242, 201, 158);stroke:none;color:rgb(11, 11, 11);stroke-width:1px;stroke-linecap:butt;stroke-linejoin:miter;opacity:1;font-family:anthropic-sans, -apple-system, &quot;system-ui&quot;, &quot;Segoe UI&quot;, sans-serif;font-size:16px;font-weight:400;text-anchor:start;dominant-baseline:auto"/>
  <path d="M27,32H3c-1.657,0-3-1.343-3-3V0l4,4h22l4-4v29C30,30.657,28.657,32,27,32z" style="fill: #F9E0BD;;fill:rgb(249, 224, 189);stroke:none;color:rgb(11, 11, 11);stroke-width:1px;stroke-linecap:butt;stroke-linejoin:miter;opacity:1;font-family:anthropic-sans, -apple-system, &quot;system-ui&quot;, &quot;Segoe UI&quot;, sans-serif;font-size:16px;font-weight:400;text-anchor:start;dominant-baseline:auto"/>

  
  <g clip-path="url(#earL)" style="fill:rgb(0, 0, 0);stroke:none;color:rgb(11, 11, 11);stroke-width:1px;stroke-linecap:butt;stroke-linejoin:miter;opacity:1;font-family:anthropic-sans, -apple-system, &quot;system-ui&quot;, &quot;Segoe UI&quot;, sans-serif;font-size:16px;font-weight:400;text-anchor:start;dominant-baseline:auto">
    <g style="fill:rgb(0, 0, 0);stroke:none;color:rgb(11, 11, 11);stroke-width:1px;stroke-linecap:butt;stroke-linejoin:miter;opacity:1;font-family:anthropic-sans, -apple-system, &quot;system-ui&quot;, &quot;Segoe UI&quot;, sans-serif;font-size:16px;font-weight:400;text-anchor:start;dominant-baseline:auto">
      
      <path d="M29,32H3c-1.657,0-3-1.343-3-3V0h2l4,4h20l4-4h2v29C32,30.657,30.657,32,29,32z" style="fill: #F2C99E;;fill:rgb(242, 201, 158);stroke:none;color:rgb(11, 11, 11);stroke-width:1px;stroke-linecap:butt;stroke-linejoin:miter;opacity:1;font-family:anthropic-sans, -apple-system, &quot;system-ui&quot;, &quot;Segoe UI&quot;, sans-serif;font-size:16px;font-weight:400;text-anchor:start;dominant-baseline:auto"/>
      <path d="M27,32H3c-1.657,0-3-1.343-3-3V0l4,4h22l4-4v29C30,30.657,28.657,32,27,32z" style="fill: #F9E0BD;;fill:rgb(249, 224, 189);stroke:none;color:rgb(11, 11, 11);stroke-width:1px;stroke-linecap:butt;stroke-linejoin:miter;opacity:1;font-family:anthropic-sans, -apple-system, &quot;system-ui&quot;, &quot;Segoe UI&quot;, sans-serif;font-size:16px;font-weight:400;text-anchor:start;dominant-baseline:auto"/>
    </g>
  </g>

  
  <g clip-path="url(#earR)" style="fill:rgb(0, 0, 0);stroke:none;color:rgb(11, 11, 11);stroke-width:1px;stroke-linecap:butt;stroke-linejoin:miter;opacity:1;font-family:anthropic-sans, -apple-system, &quot;system-ui&quot;, &quot;Segoe UI&quot;, sans-serif;font-size:16px;font-weight:400;text-anchor:start;dominant-baseline:auto">
    <g style="fill:rgb(0, 0, 0);stroke:none;color:rgb(11, 11, 11);stroke-width:1px;stroke-linecap:butt;stroke-linejoin:miter;opacity:1;font-family:anthropic-sans, -apple-system, &quot;system-ui&quot;, &quot;Segoe UI&quot;, sans-serif;font-size:16px;font-weight:400;text-anchor:start;dominant-baseline:auto">
      
      <path d="M29,32H3c-1.657,0-3-1.343-3-3V0h2l4,4h20l4-4h2v29C32,30.657,30.657,32,29,32z" style="fill: #F2C99E;;fill:rgb(242, 201, 158);stroke:none;color:rgb(11, 11, 11);stroke-width:1px;stroke-linecap:butt;stroke-linejoin:miter;opacity:1;font-family:anthropic-sans, -apple-system, &quot;system-ui&quot;, &quot;Segoe UI&quot;, sans-serif;font-size:16px;font-weight:400;text-anchor:start;dominant-baseline:auto"/>
      <path d="M27,32H3c-1.657,0-3-1.343-3-3V0l4,4h22l4-4v29C30,30.657,28.657,32,27,32z" style="fill: #F9E0BD;;fill:rgb(249, 224, 189);stroke:none;color:rgb(11, 11, 11);stroke-width:1px;stroke-linecap:butt;stroke-linejoin:miter;opacity:1;font-family:anthropic-sans, -apple-system, &quot;system-ui&quot;, &quot;Segoe UI&quot;, sans-serif;font-size:16px;font-weight:400;text-anchor:start;dominant-baseline:auto"/>
    </g>
  </g>

  <g style="fill:rgb(0, 0, 0);stroke:none;color:rgb(11, 11, 11);stroke-width:1px;stroke-linecap:butt;stroke-linejoin:miter;opacity:1;font-family:anthropic-sans, -apple-system, &quot;system-ui&quot;, &quot;Segoe UI&quot;, sans-serif;font-size:16px;font-weight:400;text-anchor:start;dominant-baseline:auto">
    <path d="M20,8c1.105,0,2,0.895,2,2s-0.895,2-2,2s-2-0.895-2-2S18.895,8,20,8z M8,10c0,1.105,0.895,2,2,2   s2-0.895,2-2s-0.895-2-2-2S8,8.895,8,10z" style="fill: #4C4842;;fill:rgb(76, 72, 66);stroke:none;color:rgb(11, 11, 11);stroke-width:1px;stroke-linecap:butt;stroke-linejoin:miter;opacity:1;font-family:anthropic-sans, -apple-system, &quot;system-ui&quot;, &quot;Segoe UI&quot;, sans-serif;font-size:16px;font-weight:400;text-anchor:start;dominant-baseline:auto"/>
    <path d="M20.5,9C20.776,9,21,9.224,21,9.5S20.776,10,20.5,10S20,9.776,20,9.5S20.224,9,20.5,9z M10,9.5   c0,0.276,0.224,0.5,0.5,0.5S11,9.776,11,9.5S10.776,9,10.5,9S10,9.224,10,9.5z" style="fill: #FFF2DF;;fill:rgb(255, 242, 223);stroke:none;color:rgb(11, 11, 11);stroke-width:1px;stroke-linecap:butt;stroke-linejoin:miter;opacity:1;font-family:anthropic-sans, -apple-system, &quot;system-ui&quot;, &quot;Segoe UI&quot;, sans-serif;font-size:16px;font-weight:400;text-anchor:start;dominant-baseline:auto"/>
  </g>

  <path d="M17.354,17.646L15.5,15.793v-1.058C16.092,14.392,17,13.748,17,13c0-1.105-0.895-1-2-1   s-2-0.105-2,1c0,0.748,0.908,1.392,1.5,1.735v1.058l-1.854,1.854c-0.195,0.195-0.195,0.512,0,0.707   C12.744,18.451,12.872,18.5,13,18.5s0.256-0.049,0.354-0.146L15,16.707l1.646,1.646C16.744,18.451,16.872,18.5,17,18.5   s0.256-0.049,0.354-0.146C17.549,18.158,17.549,17.842,17.354,17.646z" style="fill: #D97360;;fill:rgb(217, 115, 96);stroke:none;color:rgb(11, 11, 11);stroke-width:1px;stroke-linecap:butt;stroke-linejoin:miter;opacity:1;font-family:anthropic-sans, -apple-system, &quot;system-ui&quot;, &quot;Segoe UI&quot;, sans-serif;font-size:16px;font-weight:400;text-anchor:start;dominant-baseline:auto"/>
  <path d="M32,9h-2V7h2V9z M32,11h-2v2h2V11z M32,15h-2v2h2V15z M32,19h-2v2h2V19z M32,23h-2v2h2V23z M32,27   h-2v2h2V27z" style="fill: #EDB57E;;fill:rgb(237, 181, 126);stroke:none;color:rgb(11, 11, 11);stroke-width:1px;stroke-linecap:butt;stroke-linejoin:miter;opacity:1;font-family:anthropic-sans, -apple-system, &quot;system-ui&quot;, &quot;Segoe UI&quot;, sans-serif;font-size:16px;font-weight:400;text-anchor:start;dominant-baseline:auto"/>
  <path d="M4,12c0,0.552-0.448,1-1,1H0v-2h3C3.552,11,4,11.448,4,12z M3,15H0v2h3c0.552,0,1-0.448,1-1   C4,15.448,3.552,15,3,15z M3,19H0v2h3c0.552,0,1-0.448,1-1C4,19.448,3.552,19,3,19z M3,23H0v2h3c0.552,0,1-0.448,1-1   C4,23.448,3.552,23,3,23z M3,27H0v2h3c0.552,0,1-0.448,1-1C4,27.448,3.552,27,3,27z M3,7H0v2h3c0.552,0,1-0.448,1-1   C4,7.448,3.552,7,3,7z M26,16c0,0.552,0.448,1,1,1h3v-2h-3C26.448,15,26,15.448,26,16z M26,12c0,0.552,0.448,1,1,1h3v-2h-3   C26.448,11,26,11.448,26,12z M27,7c-0.552,0-1,0.448-1,1c0,0.552,0.448,1,1,1h3V7H27z M26,24c0,0.552,0.448,1,1,1h3v-2h-3   C26.448,23,26,23.448,26,24z M26,28c0,0.552,0.448,1,1,1h3v-2h-3C26.448,27,26,27.448,26,28z M26,20c0,0.552,0.448,1,1,1h3v-2h-3   C26.448,19,26,19.448,26,20z" style="fill: #F2C99E;;fill:rgb(242, 201, 158);stroke:none;color:rgb(11, 11, 11);stroke-width:1px;stroke-linecap:butt;stroke-linejoin:miter;opacity:1;font-family:anthropic-sans, -apple-system, &quot;system-ui&quot;, &quot;Segoe UI&quot;, sans-serif;font-size:16px;font-weight:400;text-anchor:start;dominant-baseline:auto"/>
</g>

<text x="440" y="160" text-anchor="middle" style="fill:rgb(255, 255, 255);stroke:none;color:rgb(11, 11, 11);stroke-width:1px;stroke-linecap:butt;stroke-linejoin:miter;opacity:1;font-family:-apple-system, &quot;Segoe UI&quot;, anthropic-sans, sans-serif;font-size:44px;font-weight:600;text-anchor:middle;dominant-baseline:auto">Rakesh Sawant</text>
<text x="440" y="192" text-anchor="middle" style="fill:rgb(143, 143, 143);stroke:none;color:rgb(11, 11, 11);stroke-width:1px;stroke-linecap:butt;stroke-linejoin:miter;opacity:1;font-family:-apple-system, &quot;Segoe UI&quot;, anthropic-sans, sans-serif;font-size:17px;font-weight:400;text-anchor:middle;dominant-baseline:auto">Backend AI Engineer</text>

<line x1="0" y1="279" x2="880" y2="279" style="fill:rgb(0, 0, 0);stroke:rgb(43, 43, 43);color:rgb(11, 11, 11);stroke-width:1px;stroke-linecap:butt;stroke-linejoin:miter;opacity:1;font-family:anthropic-sans, -apple-system, &quot;system-ui&quot;, &quot;Segoe UI&quot;, sans-serif;font-size:16px;font-weight:400;text-anchor:start;dominant-baseline:auto"/>
</svg>
